<?xml version="1.0" encoding="utf-8"?>
<!-- Generator: Adobe Illustrator 18.0.0, SVG Export Plug-In . SVG Version: 6.00 Build 0)  -->
<!DOCTYPE svg PUBLIC "-//W3C//DTD SVG 1.1//EN" "http://www.w3.org/Graphics/SVG/1.1/DTD/svg11.dtd">
<svg version="1.1" id="Layer_1" xmlns="http://www.w3.org/2000/svg" xmlns:xlink="http://www.w3.org/1999/xlink" x="0px" y="0px"
	 viewBox="0 0 388.6 282.9" enable-background="new 0 0 388.6 282.9" xml:space="preserve">
<g>
	<g>
		<path fill="#10658C" d="M145.6,147.5c-6.2,0-12.2-3.2-15.4-9l-29.6-52.3c-0.6-1.1-0.2-2.5,0.9-3.2c1.1-0.6,2.5-0.2,3.2,0.9
			l29.6,52.3c3.5,6.3,11.5,8.5,17.8,4.9c3-1.7,5.2-4.5,6.1-7.9c0.9-3.4,0.5-6.9-1.2-9.9l-29-51.1c-0.6-1.1-0.2-2.5,0.9-3.2
			c1.1-0.6,2.5-0.2,3.2,0.9l29,51.1c2.3,4.1,2.9,8.9,1.7,13.4c-1.3,4.6-4.2,8.3-8.3,10.7C151.5,146.7,148.5,147.5,145.6,147.5z"/>
		<path fill="#10658C" d="M128,132.3c-0.8,0-1.6-0.4-2-1.2c-0.6-1.1-0.2-2.5,0.9-3.2l26.7-15.1c1.1-0.6,2.5-0.2,3.2,0.9
			c0.6,1.1,0.2,2.5-0.9,3.2L129.1,132C128.8,132.2,128.4,132.3,128,132.3z"/>
		<path fill="#10658C" d="M124,125.3c-0.8,0-1.6-0.4-2-1.2c-0.6-1.1-0.2-2.5,0.9-3.2l26.7-15.1c1.1-0.6,2.5-0.2,3.2,0.9
			c0.6,1.1,0.2,2.5-0.9,3.2L125.2,125C124.8,125.2,124.4,125.3,124,125.3z"/>
		<path fill="#10658C" d="M130.5,105.6c-0.8,0-1.6-0.4-2-1.2l-6.1-10.7c-0.6-1.1-0.2-2.5,0.9-3.2c1.1-0.6,2.5-0.2,3.2,0.9l6.1,10.7
			c0.6,1.1,0.2,2.5-0.9,3.2C131.3,105.5,130.9,105.6,130.5,105.6z"/>
		<path fill="#E95F58" d="M104.1,87.4c-11.1,0-21.4-6-26.8-15.6c-4.1-7.2-5.1-15.5-2.9-23.4s7.3-14.5,14.5-18.6
			c4.6-2.6,9.9-4,15.2-4c11.1,0,21.4,6,26.8,15.6c8.4,14.8,3.2,33.6-11.6,42C114.6,86,109.4,87.4,104.1,87.4z M104,30.5
			c-4.5,0-8.9,1.2-12.9,3.4c-6.1,3.4-10.5,9-12.3,15.8c-1.9,6.7-1,13.8,2.5,19.9c4.6,8.2,13.4,13.3,22.8,13.3
			c4.5,0,8.9-1.2,12.9-3.4c12.5-7.1,17-23.1,9.9-35.6C122.2,35.5,113.5,30.5,104,30.5z"/>
		<path fill="#E95F58" d="M79.3,73c-0.8,0-1.6-0.4-2-1.2c-0.6-1.1-0.2-2.5,0.9-3.2l49.6-28.1c1.1-0.6,2.5-0.2,3.2,0.9
			c0.6,1.1,0.2,2.5-0.9,3.2L80.4,72.7C80.1,72.9,79.7,73,79.3,73z"/>
		<path fill="#10658C" d="M187.8,166.1c-3.8,0-7.7-0.5-11.4-1.6c-11-3-20.2-10.2-25.8-20.1c-0.6-1.1-0.2-2.5,0.9-3.2
			c1.1-0.6,2.5-0.2,3.2,0.9c5,8.9,13.2,15.2,23,17.9c9.8,2.7,20.1,1.4,28.9-3.6c11.2-6.4,19.3-16.7,22.7-29.1
			c3.4-12.4,1.8-25.4-4.5-36.6c-16.6-29.2-53.8-39.4-82.9-22.9c-1.1,0.6-2.5,0.2-3.2-0.9c-0.6-1.1-0.2-2.5,0.9-3.2
			c31.4-17.8,71.5-6.8,89.3,24.6c7,12.3,8.7,26.5,5,40.1s-12.6,24.9-24.9,31.9C202.3,164.2,195.1,166.1,187.8,166.1z"/>
		<path fill="#10658C" d="M196.9,225.7c-35.2,0-69.5-18.4-88-51.2c-11.8-20.7-13.8-45.5-5.7-67.9c0.4-1.2,1.8-1.8,3-1.4
			c1.2,0.4,1.8,1.8,1.4,3c-7.7,21.1-5.7,44.5,5.4,64c26.2,46.2,85.2,62.5,131.4,36.3c30.8-17.5,52.3-47.4,59.1-82.1
			c0.2-1.3,1.5-2.1,2.7-1.8c1.3,0.2,2.1,1.5,1.8,2.7c-7,36.1-29.4,67.2-61.3,85.3C230.9,221.5,213.8,225.7,196.9,225.7z"/>
		<path fill="#E95F58" d="M301.5,80.4c2.8,0,5.6,1.3,7.5,3.7l1.6,2.1l2.1-1.6c1.7-1.4,3.8-2,5.8-2c2.8,0,5.6,1.3,7.5,3.7
			c3.2,4.1,2.5,10.1-1.7,13.3l-2.1,1.6l-15,11.7l-11.7-15l-1.6-2.1c-3.2-4.1-2.5-10.1,1.7-13.3C297.4,81.1,299.4,80.4,301.5,80.4
			 M301.5,75.8l0,4.6L301.5,75.8c-3.2,0-6.2,1-8.7,3c-6.2,4.8-7.3,13.7-2.5,19.9l1.6,2.1l11.7,15c0.8,1,1.9,1.6,3.1,1.8
			c0.2,0,0.4,0,0.6,0c1,0,2-0.3,2.9-1l15-11.7l2.1-1.6c6.2-4.8,7.3-13.7,2.5-19.9c-2.7-3.5-6.8-5.5-11.2-5.5c-2.5,0-5,0.7-7.1,1.9
			C308.7,77.2,305.2,75.8,301.5,75.8L301.5,75.8z"/>
		<path fill="#E95F58" d="M315.9,124.9c-1.1,0-2-0.7-2.3-1.8c-0.3-1.3,0.5-2.5,1.8-2.8l15.6-3.5l-4.3-2.2c-0.9-0.5-1.3-1.4-1.2-2.3
			c0.1-1,0.8-1.7,1.8-2l15.1-3.6c1.3-0.3,2.5,0.5,2.8,1.7s-0.5,2.5-1.7,2.8l-9.1,2.2l4.4,2.3c0.9,0.5,1.3,1.4,1.2,2.4
			s-0.8,1.7-1.8,2l-21.8,4.9C316.3,124.9,316.1,124.9,315.9,124.9z"/>
		<path fill="#E95F58" d="M293.5,121.9c-0.6,0-1.2-0.2-1.6-0.6l-16.2-15.4c-0.7-0.7-0.9-1.7-0.5-2.6c0.4-0.9,1.3-1.5,2.3-1.4
			l4.9,0.3l-6.7-6.5c-0.9-0.9-0.9-2.4,0-3.3c0.9-0.9,2.4-0.9,3.3,0l11.1,10.8c0.7,0.7,0.9,1.7,0.5,2.6c-0.4,0.9-1.3,1.4-2.3,1.4
			l-4.8-0.3l11.6,11c0.9,0.9,1,2.4,0.1,3.3C294.7,121.7,294.1,121.9,293.5,121.9z"/>
		<path fill="#E95F58" d="M291.3,130.1c-0.1,0-0.2,0-0.3,0l-11.2-1.5c-1.3-0.2-2.2-1.3-2-2.6c0.2-1.3,1.3-2.2,2.6-2l11.2,1.5
			c1.3,0.2,2.2,1.3,2,2.6C293.4,129.2,292.4,130.1,291.3,130.1z"/>
		<path fill="#E95F58" d="M281.9,143c-0.8,0-1.6-0.4-2-1.2c-0.6-1.1-0.3-2.5,0.8-3.2l9-5.3c1.1-0.6,2.5-0.3,3.2,0.8s0.3,2.5-0.8,3.2
			l-9,5.3C282.7,142.9,282.3,143,281.9,143z"/>
		<path fill="#E95F58" d="M326.2,141.3c-0.4,0-0.8-0.1-1.2-0.3l-11.2-6.8c-1.1-0.7-1.4-2.1-0.8-3.2c0.7-1.1,2.1-1.4,3.2-0.8
			l11.2,6.8c1.1,0.7,1.4,2.1,0.8,3.2C327.8,140.9,327,141.3,326.2,141.3z"/>
		<path fill="#E95F58" d="M318.4,153.1c-0.8,0-1.5-0.4-2-1.1l-5.9-9.4c-0.7-1.1-0.4-2.5,0.7-3.2c1.1-0.7,2.5-0.4,3.2,0.7l5.9,9.4
			c0.7,1.1,0.4,2.5-0.7,3.2C319.2,152.9,318.8,153.1,318.4,153.1z"/>
	</g>
	<g>
		<g>
			<path fill="#2FA3D9" d="M35.7,143.5c-0.5,0-1-0.3-1.3-0.7l-16.6-26.5c-0.2-0.3-0.3-0.8-0.2-1.2c0.1-0.4,0.3-0.7,0.7-1l20.9-13.1
				c0.7-0.5,1.7-0.2,2.1,0.5l16.6,26.5c0.5,0.7,0.2,1.7-0.5,2.1c-0.7,0.5-1.7,0.2-2.1-0.5l-15.7-25.2L21.3,116L37,141.2
				c0.5,0.7,0.2,1.7-0.5,2.1C36.3,143.5,36,143.5,35.7,143.5z"/>
			<path fill="#2FA3D9" d="M29.6,154.6c-3,0-5.8-1.5-7.4-4.1c-2.6-4.1-1.3-9.5,2.8-12.1c1.4-0.9,3-1.3,4.6-1.3c3,0,5.8,1.5,7.4,4.1
				c2.6,4.1,1.3,9.5-2.8,12.1C32.8,154.1,31.2,154.6,29.6,154.6z M29.6,140.2c-1.1,0-2.1,0.3-3,0.9c-2.6,1.7-3.5,5.1-1.8,7.8
				c1,1.7,2.8,2.7,4.8,2.7c1.1,0,2.1-0.3,3-0.9c2.6-1.7,3.5-5.1,1.8-7.8C33.3,141.2,31.6,140.2,29.6,140.2z"/>
			<path fill="#2FA3D9" d="M50.5,141.5c-3,0-5.8-1.5-7.4-4.1c-2.6-4.1-1.3-9.5,2.8-12.1c1.4-0.9,3-1.3,4.6-1.3c3,0,5.8,1.5,7.4,4.1
				c2.6,4.1,1.3,9.5-2.8,12.1C53.7,141,52.1,141.5,50.5,141.5z M50.5,127.1c-1.1,0-2.1,0.3-3,0.9c-2.6,1.7-3.5,5.1-1.8,7.8
				c1,1.7,2.8,2.7,4.8,2.7c1.1,0,2.1-0.3,3-0.9c2.6-1.7,3.5-5.1,1.8-7.8C54.2,128.1,52.5,127.1,50.5,127.1z"/>
			<path fill="#2FA3D9" d="M24,124.8c-0.5,0-1-0.3-1.3-0.7c-0.5-0.7-0.2-1.7,0.5-2.1l20.9-13.1c0.7-0.5,1.7-0.2,2.1,0.5
				c0.5,0.7,0.2,1.7-0.5,2.1l-20.9,13.1C24.6,124.8,24.3,124.8,24,124.8z"/>
		</g>
	</g>
	<g>
		<path fill="#8C61DA" d="M293.8,267.3c-0.1,0-0.2,0-0.3,0c-0.9-0.2-1.4-1-1.3-1.9l5.9-29l-21-4.3l-5.9,29c-0.2,0.9-1,1.4-1.9,1.3
			s-1.4-1-1.3-1.9l6.3-30.6c0.2-0.9,1-1.4,1.9-1.3l24.1,4.9c0.4,0.1,0.8,0.3,1,0.7c0.2,0.4,0.3,0.8,0.2,1.2l-6.3,30.6
			C295.3,266.8,294.6,267.3,293.8,267.3z"/>
		<path fill="#8C61DA" d="M262.6,268.1c-0.6,0-1.2-0.1-1.8-0.2c-2.3-0.5-4.3-1.8-5.6-3.8c-1.3-2-1.8-4.3-1.3-6.6
			c0.8-4.1,4.5-7.1,8.6-7.1c0.6,0,1.2,0.1,1.8,0.2c2.3,0.5,4.3,1.8,5.6,3.8c1.3,2,1.8,4.3,1.3,6.6
			C270.4,265.2,266.8,268.1,262.6,268.1z M262.6,253.7c-2.6,0-4.9,1.9-5.5,4.5c-0.3,1.5,0,2.9,0.8,4.2c0.8,1.2,2.1,2.1,3.5,2.4
			c0.4,0.1,0.8,0.1,1.1,0.1c2.6,0,4.9-1.9,5.5-4.5c0.3-1.5,0-2.9-0.8-4.2c-0.8-1.2-2.1-2.1-3.5-2.4
			C263.4,253.8,263,253.7,262.6,253.7z"/>
		<path fill="#8C61DA" d="M286.8,273.1c-0.6,0-1.2-0.1-1.8-0.2c-2.3-0.5-4.3-1.8-5.6-3.8s-1.8-4.3-1.3-6.6c0.8-4.1,4.5-7.1,8.6-7.1
			c0.6,0,1.2,0.1,1.8,0.2c2.3,0.5,4.3,1.8,5.6,3.8s1.8,4.3,1.3,6.6C294.6,270.1,291,273.1,286.8,273.1z M286.8,258.7
			c-2.6,0-4.9,1.9-5.5,4.5c-0.3,1.5,0,2.9,0.8,4.2c0.8,1.2,2.1,2.1,3.5,2.4c0.4,0.1,0.7,0.1,1.1,0.1c2.6,0,4.9-1.9,5.5-4.5
			c0.3-1.5,0-2.9-0.8-4.2c-0.8-1.2-2.1-2.1-3.5-2.4C287.5,258.7,287.1,258.7,286.8,258.7z"/>
		<path fill="#8C61DA" d="M298.3,245.7c-0.1,0-0.2,0-0.3,0l-24.1-4.9c-0.9-0.2-1.4-1-1.3-1.9c0.2-0.9,1-1.4,1.9-1.3l24.1,4.9
			c0.9,0.2,1.4,1,1.3,1.9C299.7,245.2,299,245.7,298.3,245.7z"/>
	</g>
	<g>
		<path fill="#8C61DA" d="M252.5,33.5c-0.4,0-0.8-0.2-1.2-0.5l-7.4-7.4c-0.6-0.6-0.6-1.7,0-2.3c0.6-0.6,1.7-0.6,2.3,0l7.4,7.4
			c0.6,0.6,0.6,1.7,0,2.3C253.3,33.3,252.9,33.5,252.5,33.5z"/>
		<path fill="#8C61DA" d="M245.1,33.5c-0.4,0-0.8-0.2-1.2-0.5c-0.6-0.6-0.6-1.7,0-2.3l7.4-7.4c0.6-0.6,1.7-0.6,2.3,0
			c0.6,0.6,0.6,1.7,0,2.3l-7.4,7.4C245.9,33.3,245.5,33.5,245.1,33.5z"/>
	</g>
	<path fill="#2FA3D9" d="M318.4,206.1c-1.2,0-2.4-0.7-3-1.9l-2.7-5.5c0-0.1-0.1-0.1-0.1-0.1l-5-3c-1.1-0.6-1.7-1.8-1.7-3.1
		c0-1.3,0.6-2.4,1.7-3.1l5-3c0,0,0.1-0.1,0.1-0.1l2.7-5.5c0.6-1.2,1.7-1.9,3-1.9s2.4,0.7,3,1.9l2.7,5.5c0,0.1,0.1,0.1,0.1,0.1l5,3
		c1.1,0.6,1.7,1.8,1.7,3.1c0,1.3-0.6,2.4-1.7,3.1l-5,3c0,0-0.1,0.1-0.1,0.1l-2.7,5.5C320.7,205.3,319.6,206.1,318.4,206.1z
		 M318.4,182c-0.1,0-0.2,0.1-0.2,0.2l-2.7,5.5c-0.3,0.6-0.7,1.1-1.3,1.4l-5,3c-0.1,0.1-0.2,0.3-0.2,0.4c0,0.1,0,0.3,0.2,0.4l5,3
		c0.6,0.3,1,0.8,1.3,1.4l2.7,5.5c0,0.1,0.1,0.2,0.2,0.2c0.1,0,0.2-0.1,0.2-0.2l2.7-5.5c0.3-0.6,0.7-1.1,1.3-1.4l5-3
		c0.1-0.1,0.2-0.3,0.2-0.4c0-0.1,0-0.3-0.2-0.4l-5-3c-0.6-0.3-1-0.8-1.3-1.4l-2.7-5.5C318.5,182.1,318.5,182,318.4,182z"/>
	<path fill="#10658C" d="M140.6,250.3c-3.7,0-6.7-2.8-7.1-6.4c-0.2-1.9,0.4-3.7,1.6-5.2s2.9-2.4,4.8-2.6c4-0.4,7.4,2.5,7.7,6.4
		c0.4,3.9-2.5,7.4-6.4,7.7C141.1,250.2,140.8,250.3,140.6,250.3z M140.6,239.3c-0.1,0-0.3,0-0.4,0c-1,0.1-1.9,0.6-2.6,1.4
		c-0.7,0.8-1,1.8-0.9,2.8c0.2,2.1,2,3.7,4.2,3.4c2.1-0.2,3.7-2.1,3.5-4.2C144.3,240.8,142.6,239.3,140.6,239.3z"/>
	<circle fill="#10658C" cx="187" cy="14.6" r="3.5"/>
	<circle fill="#10658C" cx="87.1" cy="211.3" r="3.5"/>
	<circle fill="#E95F58" cx="374.2" cy="147.7" r="3.5"/>
</g>
</svg>
