<?xml version="1.0" encoding="utf-8"?>
<!-- Generator: Adobe Illustrator 18.0.0, SVG Export Plug-In . SVG Version: 6.00 Build 0)  -->
<!DOCTYPE svg PUBLIC "-//W3C//DTD SVG 1.1//EN" "http://www.w3.org/Graphics/SVG/1.1/DTD/svg11.dtd">
<svg version="1.1" id="Layer_1" xmlns="http://www.w3.org/2000/svg" xmlns:xlink="http://www.w3.org/1999/xlink" x="0px" y="0px"
	 viewBox="0 0 348.6 201.4" enable-background="new 0 0 348.6 201.4" xml:space="preserve">
<g>
	<g>
		<path fill="#10658C" d="M174.1,165.2c-36.2,0-65.6-29.4-65.6-65.6S137.9,34,174.1,34s65.6,29.4,65.6,65.6S210.3,165.2,174.1,165.2
			z M174.1,37c-34.5,0-62.6,28.1-62.6,62.6s28.1,62.6,62.6,62.6s62.6-28.1,62.6-62.6S208.7,37,174.1,37z"/>
		<path fill="#10658C" d="M174.1,165.2c-9.2,0-17.7-7-24-19.6c-6.2-12.3-9.6-28.7-9.6-46c0-17.4,3.4-33.7,9.6-46
			c6.3-12.6,14.9-19.6,24-19.6c9.2,0,17.7,7,24,19.6c6.2,12.3,9.6,28.7,9.6,46c0,17.4-3.4,33.7-9.6,46
			C191.8,158.3,183.3,165.2,174.1,165.2z M174.1,37c-16.9,0-30.6,28.1-30.6,62.6s13.7,62.6,30.6,62.6s30.6-28.1,30.6-62.6
			S191,37,174.1,37z"/>
		<path fill="#10658C" d="M174.1,165.2c-0.8,0-1.5-0.7-1.5-1.5V35.5c0-0.8,0.7-1.5,1.5-1.5c0.8,0,1.5,0.7,1.5,1.5v128.3
			C175.6,164.6,175,165.2,174.1,165.2z"/>
		<path fill="#10658C" d="M229.1,134.1h-110c-0.8,0-1.5-0.7-1.5-1.5s0.7-1.5,1.5-1.5h110c0.8,0,1.5,0.7,1.5,1.5
			S230,134.1,229.1,134.1z"/>
		<path fill="#10658C" d="M229.1,68.5h-110c-0.8,0-1.5-0.7-1.5-1.5s0.7-1.5,1.5-1.5h110c0.8,0,1.5,0.7,1.5,1.5S230,68.5,229.1,68.5z
			"/>
		<path fill="#10658C" d="M238.3,101.1H110c-0.8,0-1.5-0.7-1.5-1.5c0-0.8,0.7-1.5,1.5-1.5h128.3c0.8,0,1.5,0.7,1.5,1.5
			C239.8,100.4,239.1,101.1,238.3,101.1z"/>
		<g>
			<path fill="#E95F58" d="M190.8,85.5c-4-4-10.6-4-14.6,0l-2,2l-2-2c-4-4-10.6-4-14.6,0c-4,4-4,10.6,0,14.6l2,2l14.6,14.6
				l14.6-14.6l2-2C194.8,96.1,194.8,89.5,190.8,85.5z"/>
			<path fill="#FFFFFF" d="M183.5,82.5c2.6,0,5.3,1,7.3,3c4,4,4,10.6,0,14.6l-2,2l-14.6,14.6l-14.6-14.6l-2-2c-4-4-4-10.6,0-14.6
				c2-2,4.7-3,7.3-3c2.6,0,5.3,1,7.3,3l2,2l2-2C178.2,83.5,180.8,82.5,183.5,82.5 M183.5,79.5c-3.5,0-6.8,1.3-9.3,3.8
				c-2.5-2.4-5.8-3.8-9.3-3.8c-3.6,0-6.9,1.4-9.4,3.9c-5.2,5.2-5.2,13.7,0,18.9l2,2l14.6,14.6c0.6,0.6,1.4,0.9,2.1,0.9
				s1.5-0.3,2.1-0.9l14.6-14.6l2-2c5.2-5.2,5.2-13.7,0-18.9C190.4,80.9,187,79.5,183.5,79.5L183.5,79.5z"/>
		</g>
		<g>
			<g>
				<path fill="#2FA3D9" d="M83.4,95.1c-0.9-0.1-1.5-0.8-1.4-1.7l0.5-4.8c0.2-1.8,0.8-3.1,1.9-3.9c0.9-0.7,2-1,3.3-0.8l0,0
					c2.2,0.2,3.4,1.5,3.9,3.2l2.8-1.8c0.4-0.3,0.8-0.4,1.2-0.4c0.9,0.1,1.3,0.9,1.3,1.6c-0.1,0.7-0.5,1.1-1,1.4L92,90.5l-0.3,2.4
					l3,0.3c0.9,0.1,1.5,0.8,1.4,1.7c-0.1,0.9-0.8,1.5-1.7,1.4L83.4,95.1z M89.3,89.5c0.2-1.5-0.5-2.4-1.7-2.6l0,0
					c-1.3-0.1-2.1,0.7-2.3,2.2l-0.3,3l4,0.4L89.3,89.5z"/>
				<path fill="#2FA3D9" d="M86,77.8c-0.8-0.2-1.3-1.1-1.1-1.9c0.2-0.8,1.1-1.3,1.9-1.1l10.8,2.9c0.8,0.2,1.3,1.1,1.1,1.9
					c-0.2,0.8-1.1,1.3-1.9,1.1L86,77.8z"/>
				<path fill="#2FA3D9" d="M93.5,71.4L93.5,71.4c-3.7-1.6-5.5-5.7-3.8-9.6c0.8-1.9,1.9-3,3.2-3.7c0.3-0.2,0.9-0.3,1.4-0.1
					c0.8,0.3,1.1,1.2,0.8,2c-0.2,0.4-0.4,0.6-0.6,0.7c-0.9,0.5-1.6,1.2-2.1,2.2c-0.9,2.2,0.2,4.5,2.4,5.5l0,0c2.2,1,4.7,0.2,5.7-2
					c0.5-1.2,0.5-2.1,0.2-3.2c-0.1-0.3-0.1-0.6,0.1-1c0.3-0.7,1.2-1.1,1.9-0.8c0.4,0.2,0.7,0.6,0.8,0.9c0.5,1.6,0.5,3.2-0.4,5.3
					C101.4,71.4,97.2,73,93.5,71.4z"/>
				<path fill="#2FA3D9" d="M96.5,52.2c-0.7-0.5-0.9-1.4-0.4-2.1c0.5-0.7,1.4-0.9,2.1-0.4l3.9,2.7l-1.4-7.9c-0.1-0.5-0.1-1,0.3-1.4
					c0.5-0.7,1.4-0.8,2-0.4c0.4,0.3,0.6,0.7,0.6,1.1l0.8,5.3l6.9-0.4c0.4,0,0.7,0,1.1,0.3c0.7,0.5,0.9,1.4,0.3,2.1
					c-0.3,0.5-0.8,0.6-1.4,0.6l-6.6,0.3l0.3,2.4l2.3,1.6c0.7,0.5,0.9,1.4,0.4,2.1s-1.4,0.9-2.1,0.4L96.5,52.2z"/>
				<path fill="#2FA3D9" d="M114.6,40.9l-7.5-1.2c-0.4-0.1-0.7-0.2-1-0.5c-0.6-0.6-0.5-1.5,0.1-2.1c0.5-0.5,1.1-0.5,1.7-0.4l5.9,1.1
					l-1-6c-0.1-0.7,0-1.2,0.4-1.7c0.7-0.7,1.5-0.6,2.1,0c0.3,0.3,0.4,0.7,0.5,1.1l1,7.5l2.8,2.9c0.6,0.6,0.6,1.6,0,2.2
					s-1.6,0.6-2.2,0L114.6,40.9z"/>
				<path fill="#2FA3D9" d="M126.7,21.9c-0.4-0.8-0.1-1.7,0.7-2.1l0.3-0.2c0.6-0.3,1.2-0.2,1.6,0.1l6.1,3.7l0.6-7.1
					c0-0.6,0.3-1,0.9-1.3l0.3-0.2c0.8-0.4,1.7-0.1,2.1,0.7l5.1,9.9c0.4,0.8,0.1,1.7-0.7,2.1c-0.7,0.4-1.7,0.1-2.1-0.7l-3.2-6.2
					l-0.5,4.9c-0.1,0.6-0.3,1-0.8,1.3s-1,0.2-1.5-0.1l-4.2-2.4l3.2,6.2c0.4,0.7,0.1,1.6-0.7,2s-1.6,0.1-2-0.7L126.7,21.9z"/>
				<path fill="#2FA3D9" d="M147.6,23.6l2-11.9c0.1-0.8,0.6-1.4,1.4-1.6l0.2,0c0.8-0.2,1.5,0.1,2,0.7l7.5,9.5
					c0.2,0.2,0.3,0.4,0.3,0.6c0.2,0.8-0.3,1.6-1,1.8c-0.7,0.2-1.3-0.1-1.7-0.7l-1.5-1.9l-6,1.5l-0.4,2.5c-0.1,0.6-0.5,1.1-1.1,1.3
					c-0.8,0.2-1.5-0.3-1.7-1C147.6,24.1,147.6,23.9,147.6,23.6z M155.1,17.7l-3-4l-0.7,5L155.1,17.7z"/>
				<path fill="#2FA3D9" d="M164.1,9.3c0-0.9,0.6-1.6,1.5-1.6l4.9-0.2c1.8-0.1,3.2,0.3,4.1,1.2c0.8,0.7,1.3,1.8,1.4,3.1l0,0
					c0.1,2.2-0.9,3.6-2.6,4.4l2.3,2.5c0.3,0.4,0.5,0.7,0.6,1.2c0,0.9-0.7,1.5-1.4,1.5c-0.7,0-1.2-0.3-1.6-0.7l-3.2-3.7l-2.5,0.1
					l0.1,3.1c0,0.9-0.6,1.6-1.5,1.6c-0.9,0-1.6-0.6-1.6-1.5L164.1,9.3z M170.6,14.3c1.5-0.1,2.3-0.9,2.3-2.1l0,0
					c-0.1-1.3-1-2-2.5-1.9l-3.1,0.1l0.2,4L170.6,14.3z"/>
				<path fill="#2FA3D9" d="M184.9,10.9l-2.9-0.4c-0.8-0.1-1.3-0.8-1.2-1.6c0.1-0.8,0.8-1.3,1.6-1.2l8.9,1.2
					c0.8,0.1,1.3,0.8,1.2,1.6s-0.8,1.3-1.6,1.2l-2.9-0.4l-1.3,9.6c-0.1,0.9-0.9,1.4-1.7,1.3s-1.4-0.9-1.3-1.7L184.9,10.9z"/>
				<path fill="#2FA3D9" d="M197.6,11.9c0.2-0.8,1.1-1.3,1.9-1.1c0.8,0.2,1.3,1.1,1.1,1.9l-3.1,10.7c-0.2,0.8-1.1,1.3-1.9,1.1
					s-1.3-1.1-1.1-1.9L197.6,11.9z"/>
				<path fill="#2FA3D9" d="M206.8,14.7c0.4-0.8,1.3-1.1,2-0.7l0.3,0.1c0.7,0.3,0.9,0.8,1.1,1.5l2.1,9.6l3.1-6.5
					c0.4-0.8,1.3-1.1,2-0.7s1.1,1.3,0.7,2L213.4,30c-0.4,0.8-1.3,1.1-2,0.7l-0.1,0c-0.7-0.3-0.9-0.8-1.1-1.5l-2.2-9.9l-3.2,6.8
					c-0.4,0.8-1.3,1.1-2,0.7c-0.8-0.4-1.1-1.3-0.7-2L206.8,14.7z"/>
				<path fill="#2FA3D9" d="M228.3,32.7c0.7,0.6,0.9,1.7,0.3,2.4l0,0c-0.6,0.7-1.7,0.8-2.4,0.2c-0.7-0.6-0.9-1.7-0.3-2.4l0,0
					C226.5,32.2,227.6,32.1,228.3,32.7z"/>
				<path fill="#2FA3D9" d="M238.1,42.9L238.1,42.9c3.2-2.4,7.7-1.8,10.3,1.6c2.6,3.5,1.8,7.9-1.4,10.3l0,0
					c-3.2,2.4-7.7,1.8-10.3-1.7C234.2,49.7,234.9,45.3,238.1,42.9z M245,52.3L245,52.3c2-1.5,2.5-4.1,1-6.1c-1.5-2-4.1-2.2-6-0.8
					l0,0c-1.9,1.4-2.5,4-1,6C240.5,53.5,243.1,53.7,245,52.3z"/>
				<path fill="#2FA3D9" d="M254.6,57.1c0.8-0.3,1.7,0,2,0.8l0.1,0.3c0.3,0.7,0.2,1.2-0.2,1.8l-4.7,8.6l6.6-2.9c0.8-0.3,1.7,0,2,0.8
					s0,1.7-0.8,2L249.5,73c-0.8,0.3-1.7,0-2-0.8l0-0.1c-0.3-0.7-0.1-1.2,0.2-1.8l4.9-8.9l-6.9,3c-0.8,0.3-1.7,0-2-0.8
					c-0.3-0.8,0-1.7,0.8-2L254.6,57.1z"/>
				<path fill="#2FA3D9" d="M250.9,77.4l10.7-2.4c0.8-0.2,1.7,0.3,1.8,1.2l1.7,7.6c0.2,0.7-0.3,1.5-1,1.6s-1.5-0.3-1.6-1.1l-1.4-6.1
					l-2.8,0.6l1.2,5.2c0.2,0.7-0.3,1.5-1,1.6s-1.5-0.3-1.6-1.1l-1.2-5.2l-2.9,0.6l1.4,6.2c0.2,0.7-0.3,1.5-1,1.6
					c-0.7,0.2-1.5-0.3-1.6-1.1l-1.7-7.7C249.5,78.4,250,77.6,250.9,77.4z"/>
				<path fill="#2FA3D9" d="M264.9,99.4c0.2,0,0.4-0.1,0.6-0.1c0.9,0.1,1.4,0.9,1.3,1.7c-0.1,0.7-0.6,1.2-1.3,1.4l-8.8,1.8l8.1,3.7
					c0.7,0.3,1.1,0.9,1,1.7l0,0.2c-0.1,0.8-0.6,1.3-1.4,1.4l-8.8,1.9l8.2,3.7c0.6,0.3,1,0.8,0.9,1.6c-0.1,0.8-0.8,1.4-1.6,1.3
					c-0.2,0-0.4-0.1-0.6-0.2l-10.5-5.1c-0.7-0.4-1.2-1-1.1-1.7l0-0.3c0.1-0.7,0.6-1.2,1.4-1.4l8.3-1.9l-7.7-3.6
					c-0.8-0.4-1.2-1-1.1-1.7l0-0.3c0.1-0.7,0.6-1.3,1.4-1.5L264.9,99.4z"/>
				<path fill="#2FA3D9" d="M256.4,123L256.4,123c3.8,1.4,5.7,5.5,4.1,9.6c-1.5,4-5.7,5.8-9.4,4.4l0,0c-3.7-1.4-5.6-5.5-4.1-9.6
					S252.7,121.6,256.4,123z M252.2,133.9L252.2,133.9c2.3,0.9,4.8-0.1,5.7-2.4c0.9-2.3-0.3-4.6-2.6-5.5l0,0
					c-2.2-0.9-4.7,0.1-5.6,2.4C248.8,130.7,250,133,252.2,133.9z"/>
				<path fill="#2FA3D9" d="M253.2,144.3c0.7,0.5,0.9,1.4,0.5,2.1l-2.7,4.1c-1,1.5-2.1,2.4-3.4,2.6c-1.1,0.2-2.2,0-3.3-0.7l0,0
					c-1.8-1.2-2.4-2.9-2-4.7l-3.3,0.4c-0.5,0-0.9,0-1.3-0.2c-0.7-0.5-0.8-1.4-0.4-2c0.4-0.6,0.9-0.8,1.5-0.8l4.8-0.4l1.3-2.1
					l-2.6-1.7c-0.7-0.5-0.9-1.4-0.5-2.1s1.4-0.9,2.1-0.5L253.2,144.3z M245.4,146.7c-0.8,1.3-0.6,2.4,0.4,3.1l0,0
					c1.1,0.7,2.2,0.3,3-0.9l1.7-2.6l-3.4-2.2L245.4,146.7z"/>
				<path fill="#2FA3D9" d="M243,158.9c0.6,0.6,0.6,1.6,0.1,2.2c-0.6,0.6-1.6,0.6-2.2,0.1l-7.1-6.7l-3.9,4.1c-0.5,0.6-1.4,0.6-2,0
					c-0.6-0.5-0.6-1.4,0-2l5-5.2c0.6-0.6,1.6-0.6,2.2-0.1L243,158.9z"/>
				<path fill="#2FA3D9" d="M231.8,169.9c0.5,0.7,0.3,1.6-0.4,2.1l-3.2,2.3c-3.6,2.6-7.8,1.9-10.1-1.3l0,0c-2.3-3.2-1.6-7.5,2-10
					l3.2-2.3c0.7-0.5,1.6-0.3,2.1,0.4L231.8,169.9z M221.7,165.2c-2.1,1.5-2.4,3.8-1,5.9l0,0c1.4,2,3.8,2.4,5.9,1l1.9-1.4l-4.9-6.9
					L221.7,165.2z"/>
				<path fill="#2FA3D9" d="M204.7,183.6l2.8-1c0.7-0.3,1.5,0.1,1.8,0.9c0.3,0.7-0.1,1.6-0.9,1.8l-8.5,2.9c-0.7,0.3-1.5-0.1-1.8-0.9
					c-0.3-0.7,0.1-1.6,0.9-1.8l2.8-1l-3.2-9.2c-0.3-0.8,0.1-1.7,1-2s1.7,0.1,2,1L204.7,183.6z"/>
				<path fill="#2FA3D9" d="M193,183L193,183c0.5,4-2.1,7.6-6.4,8.2s-7.8-2.2-8.3-6.1l0,0c-0.5-3.9,2.1-7.6,6.4-8.2
					C189,176.3,192.5,179,193,183z M181.5,184.6L181.5,184.6c0.3,2.4,2.3,4.2,4.8,3.8c2.5-0.3,3.9-2.5,3.6-4.9l0,0
					c-0.3-2.4-2.3-4.1-4.8-3.8C182.6,180,181.1,182.2,181.5,184.6z"/>
				<path fill="#2FA3D9" d="M173.4,184l-0.5,6.6c-0.1,0.9-0.8,1.5-1.7,1.4c-0.9-0.1-1.5-0.8-1.4-1.7l0.5-6.5
					c0.2-2.3-0.9-3.5-2.7-3.7c-1.9-0.2-3.1,0.9-3.3,3.1l-0.5,6.6c-0.1,0.9-0.8,1.5-1.7,1.4c-0.9-0.1-1.5-0.8-1.4-1.7l0.5-6.5
					c0.3-4.2,2.9-6.1,6.6-5.8C171.6,177.6,173.7,179.9,173.4,184z"/>
				<path fill="#2FA3D9" d="M154.3,188.2c-0.2,0.8-1.1,1.3-1.9,1.1l-4.7-1.3c-1.7-0.5-2.9-1.4-3.5-2.5c-0.5-1-0.6-2.1-0.3-3.4l0,0
					c0.6-2.1,2-3.1,3.9-3.3l-1.3-3.1c-0.2-0.4-0.3-0.8-0.2-1.3c0.2-0.8,1.1-1.2,1.8-1c0.7,0.2,1,0.6,1.2,1.2l1.8,4.5l2.4,0.7
					l0.9-2.9c0.2-0.8,1.1-1.3,1.9-1.1c0.8,0.2,1.3,1.1,1.1,1.9L154.3,188.2z M149.8,181.5c-1.4-0.4-2.5,0.1-2.8,1.2l0,0
					c-0.4,1.3,0.3,2.2,1.8,2.6l2.9,0.8l1.1-3.9L149.8,181.5z"/>
				<path fill="#2FA3D9" d="M131.5,174.4c-0.8-0.5-1.1-1.5-0.7-2.3l0,0c0.5-0.8,1.5-1.1,2.4-0.6c0.8,0.5,1.1,1.5,0.7,2.3l0,0
					C133.4,174.7,132.3,174.9,131.5,174.4z"/>
				<path fill="#2FA3D9" d="M122.6,162.5l-5.1-0.3c-2.2-0.1-3.3,0-4.1,0.8c-0.8,0.9-0.7,1.9,0.2,2.6c0.6,0.6,1.4,0.7,2.5,0.6
					c0.3,0,0.7,0.1,1.1,0.4c0.6,0.5,0.6,1.4,0.1,2c-0.2,0.2-0.6,0.4-0.9,0.5c-1.7,0.2-3.2-0.1-4.8-1.6c-2.1-2-2.4-4.5-0.6-6.4l0,0
					c1.6-1.7,3.2-1.8,6.4-1.5l2.9,0.2l-3.6-3.3c-0.5-0.5-0.6-1.3-0.1-1.9c0.5-0.5,1.3-0.6,1.9-0.1l5.6,5.1c0.7,0.6,0.9,1.5,0.2,2.2
					C123.9,162.4,123.3,162.6,122.6,162.5z"/>
				<path fill="#2FA3D9" d="M109.7,155.6L109.7,155.6c-3.3,2.5-7.3,2.4-9.6-0.6c-2.2-3-1.2-6.8,2-9.3l0,0c3.2-2.4,7.3-2.3,9.5,0.6
					S113,153.2,109.7,155.6z M104.1,148.2L104.1,148.2c-2.1,1.5-2.9,3.7-1.7,5.2s3.3,1.3,5.4-0.2l0,0c2-1.5,2.8-3.7,1.7-5.1
					C108.4,146.5,106.2,146.7,104.1,148.2z"/>
				<path fill="#2FA3D9" d="M95.4,141.7l0.8,0.8c0.1,0.1,0.2,0.3,0.3,0.4c0.3,0.6,0.1,1.5-0.5,1.8c-0.5,0.3-1.2,0.2-1.6-0.3
					l-1.4-1.5c-0.4-0.4-0.7-0.8-0.9-1.2l0,0c-0.4-0.7-0.1-1.7,0.6-2.1l10-5.2c0.7-0.4,1.7-0.1,2.1,0.6c0.4,0.7,0.1,1.7-0.6,2.1
					L95.4,141.7z"/>
				<path fill="#2FA3D9" d="M100.2,129.1c-0.6,1.3-1.8,2.4-4.5,3.3l0,0c-4.1,1.4-7.9,0.6-9.2-3.3c-0.5-1.3-0.5-2.5-0.3-3.5
					c0.1-0.5,0.4-1,1-1.2c0.8-0.3,1.6,0.2,1.8,0.9c0.1,0.2,0.1,0.5,0,0.8c-0.1,0.7-0.1,1.3,0.1,2.1c0.6,1.6,2.2,2,4,1.6
					c-0.7-0.5-1.3-1.1-1.8-2.5c-0.9-2.6-0.1-5.2,2.6-6.1l0,0c2.7-0.9,5.3,0.6,6.3,3.5C100.9,126.5,100.9,127.9,100.2,129.1z
					 M95.2,124.2L95.2,124.2c-1.2,0.4-1.7,1.5-1.2,3c0.5,1.4,1.6,2,2.7,1.6l0,0c1.1-0.4,1.7-1.5,1.2-3
					C97.4,124.3,96.3,123.8,95.2,124.2z"/>
				<path fill="#2FA3D9" d="M88.5,108.4c-0.1-1,0.6-1.8,1.5-1.9l0,0c1-0.1,1.8,0.6,1.9,1.6s-0.6,1.8-1.5,1.9l0,0
					C89.4,110.1,88.6,109.4,88.5,108.4z"/>
			</g>
		</g>
	</g>
	<g>
		<g>
			<g>
				<path fill="#2FA3D9" d="M75,124.5H32c-0.8,0-1.5-0.7-1.5-1.5V89c0-0.8,0.7-1.5,1.5-1.5h43c0.8,0,1.5,0.7,1.5,1.5
					s-0.7,1.5-1.5,1.5H33.5v31H75c0.8,0,1.5,0.7,1.5,1.5S75.9,124.5,75,124.5z"/>
				<path fill="#2FA3D9" d="M51.8,137.5H9c-0.5,0-1-0.3-1.3-0.7c-0.3-0.4-0.3-1-0.1-1.4l7.7-16.4l-7.7-16.4c-0.2-0.5-0.2-1,0.1-1.4
					c0.3-0.4,0.8-0.7,1.3-0.7h23c0.8,0,1.5,0.7,1.5,1.5s-0.7,1.5-1.5,1.5H11.4l7,14.9c0.2,0.4,0.2,0.9,0,1.3l-7,14.9h38.9V123
					c0-0.8,0.7-1.5,1.5-1.5s1.5,0.7,1.5,1.5v13C53.3,136.9,52.6,137.5,51.8,137.5z"/>
				<path fill="#2FA3D9" d="M51.8,137.5c-0.3,0-0.6-0.1-0.8-0.2l-19.7-13c-0.7-0.5-0.9-1.4-0.4-2.1s1.4-0.9,2.1-0.4l19.7,13
					c0.7,0.5,0.9,1.4,0.4,2.1C52.7,137.3,52.2,137.5,51.8,137.5z"/>
				<path fill="#2FA3D9" d="M73,99H45.8c-0.8,0-1.5-0.7-1.5-1.5S45,96,45.8,96H73c0.8,0,1.5,0.7,1.5,1.5S73.9,99,73,99z"/>
				<path fill="#2FA3D9" d="M73,107.5H62.6c-0.8,0-1.5-0.7-1.5-1.5s0.7-1.5,1.5-1.5H73c0.8,0,1.5,0.7,1.5,1.5S73.9,107.5,73,107.5z"
					/>
				<path fill="#2FA3D9" d="M73,116.1H55.1c-0.8,0-1.5-0.7-1.5-1.5s0.7-1.5,1.5-1.5H73c0.8,0,1.5,0.7,1.5,1.5S73.9,116.1,73,116.1z"
					/>
			</g>
			<g>
				<path fill="#2FA3D9" d="M316.3,124.5h-43c-0.8,0-1.5-0.7-1.5-1.5s0.7-1.5,1.5-1.5h41.5v-31h-41.5c-0.8,0-1.5-0.7-1.5-1.5
					s0.7-1.5,1.5-1.5h43c0.8,0,1.5,0.7,1.5,1.5v34C317.8,123.9,317.1,124.5,316.3,124.5z"/>
				<path fill="#2FA3D9" d="M339.3,137.5h-42.7c-0.8,0-1.5-0.7-1.5-1.5v-13c0-0.8,0.7-1.5,1.5-1.5s1.5,0.7,1.5,1.5v11.5h38.9
					l-7-14.9c-0.2-0.4-0.2-0.9,0-1.3l7-14.9h-20.6c-0.8,0-1.5-0.7-1.5-1.5s0.7-1.5,1.5-1.5h23c0.5,0,1,0.3,1.3,0.7s0.3,1,0.1,1.4
					l-7.7,16.4l7.7,16.4c0.2,0.5,0.2,1-0.1,1.4S339.8,137.5,339.3,137.5z"/>
				<path fill="#2FA3D9" d="M296.5,137.5c-0.5,0-1-0.2-1.3-0.7c-0.5-0.7-0.3-1.6,0.4-2.1l19.7-13c0.7-0.5,1.6-0.3,2.1,0.4
					c0.5,0.7,0.3,1.6-0.4,2.1l-19.7,13C297.1,137.5,296.8,137.5,296.5,137.5z"/>
				<path fill="#2FA3D9" d="M302.4,99h-27.2c-0.8,0-1.5-0.7-1.5-1.5s0.7-1.5,1.5-1.5h27.2c0.8,0,1.5,0.7,1.5,1.5S303.3,99,302.4,99z
					"/>
				<path fill="#2FA3D9" d="M285.7,107.5h-10.4c-0.8,0-1.5-0.7-1.5-1.5s0.7-1.5,1.5-1.5h10.4c0.8,0,1.5,0.7,1.5,1.5
					S286.5,107.5,285.7,107.5z"/>
				<path fill="#2FA3D9" d="M293.1,116.1h-17.9c-0.8,0-1.5-0.7-1.5-1.5s0.7-1.5,1.5-1.5h17.9c0.8,0,1.5,0.7,1.5,1.5
					S294,116.1,293.1,116.1z"/>
			</g>
		</g>
	</g>
</g>
</svg>
