<?xml version="1.0" encoding="utf-8"?>
<!-- Generator: Adobe Illustrator 18.0.0, SVG Export Plug-In . SVG Version: 6.00 Build 0)  -->
<!DOCTYPE svg PUBLIC "-//W3C//DTD SVG 1.1//EN" "http://www.w3.org/Graphics/SVG/1.1/DTD/svg11.dtd">
<svg version="1.1" id="Layer_1" xmlns="http://www.w3.org/2000/svg" xmlns:xlink="http://www.w3.org/1999/xlink" x="0px" y="0px"
	 viewBox="0 0 208.6 180" enable-background="new 0 0 208.6 180" xml:space="preserve">
<g>
	<g>
		<path fill="#FFFFFF" d="M104.9,127.8L70,146.2c-4.6,2.4-9.9-1.5-9-6.6l6.7-38.9c0.3-2-0.3-4.1-1.8-5.5L37.6,67.7
			c-3.7-3.6-1.7-9.9,3.5-10.6l39.1-5.7c2-0.3,3.8-1.6,4.7-3.4l17.5-35.4c2.3-4.6,8.9-4.6,11.2,0L130.9,48c0.9,1.8,2.7,3.1,4.7,3.4
			l39.1,5.7c5.1,0.7,7.1,7,3.5,10.6l-28.3,27.5c-1.5,1.4-2.1,3.5-1.8,5.5l6.7,38.9c0.9,5.1-4.5,9-9,6.6l-34.9-18.4
			C108.9,126.9,106.7,126.9,104.9,127.8z"/>
		<g>
			<path fill="#E95F58" d="M104.1,87.7l-0.7,3.6h5.3v5.5h-6.3l-1.6,8.5H95l1.6-8.5h-3.6l-1.5,8.5h-5.8l1.6-8.5h-4.9v-5.5h5.9
				l0.7-3.6h-5.2v-5.6H90l1.6-8.4h5.8l-1.6,8.4h3.6l1.6-8.4h5.8l-1.6,8.4h5v5.6H104.1z M94,91.4h3.6l0.7-3.6h-3.6L94,91.4z"/>
			<path fill="#E95F58" d="M131.3,105.3h-8.7V88.6c0-2,0-3.9,0.1-5.6c-0.5,0.7-1.2,1.3-2,2l-3.6,3l-4.4-5.5l10.9-8.9h7.7V105.3z"/>
		</g>
		<g>
			<g>
				<path fill="#10658C" d="M165.4,14.6c-0.5,0-0.9-0.3-1-0.8L163.2,9c-0.1-0.6,0.2-1.1,0.8-1.3c0.6-0.1,1.1,0.2,1.3,0.8l1.2,4.8
					c0.1,0.6-0.2,1.1-0.8,1.3C165.6,14.6,165.5,14.6,165.4,14.6z"/>
				<path fill="#10658C" d="M168.5,15.3c-0.2,0-0.4,0-0.5-0.1c-0.5-0.3-0.7-0.9-0.4-1.4l2.5-4.2c0.3-0.5,0.9-0.7,1.4-0.4
					s0.7,0.9,0.4,1.4l-2.5,4.2C169.2,15.1,168.8,15.3,168.5,15.3z"/>
				<path fill="#10658C" d="M170.1,17.9c-0.5,0-0.9-0.3-1-0.8c-0.1-0.6,0.2-1.1,0.8-1.3l4.8-1.2c0.6-0.1,1.1,0.2,1.3,0.8
					c0.1,0.6-0.2,1.1-0.8,1.3l-4.8,1.2C170.3,17.9,170.2,17.9,170.1,17.9z"/>
				<path fill="#10658C" d="M173.7,23.4c-0.2,0-0.4,0-0.5-0.1l-4.2-2.5c-0.5-0.3-0.7-0.9-0.4-1.4c0.3-0.5,0.9-0.7,1.4-0.4l4.2,2.5
					c0.5,0.3,0.7,0.9,0.4,1.4C174.4,23.2,174.1,23.4,173.7,23.4z"/>
				<path fill="#10658C" d="M168.1,27.4c-0.5,0-0.9-0.3-1-0.8l-1.2-4.8c-0.1-0.6,0.2-1.1,0.8-1.3s1.1,0.2,1.3,0.8l1.2,4.8
					c0.1,0.6-0.2,1.1-0.8,1.3C168.3,27.3,168.2,27.4,168.1,27.4z"/>
				<path fill="#10658C" d="M161.3,26.2c-0.2,0-0.4,0-0.5-0.1c-0.5-0.3-0.7-0.9-0.4-1.4l2.5-4.2c0.3-0.5,0.9-0.7,1.4-0.4
					c0.5,0.3,0.7,0.9,0.4,1.4l-2.5,4.2C162.1,26,161.7,26.2,161.3,26.2z"/>
				<path fill="#10658C" d="M157.4,20.5c-0.5,0-0.9-0.3-1-0.8c-0.1-0.6,0.2-1.1,0.8-1.3l4.8-1.2c0.6-0.1,1.1,0.2,1.3,0.8
					c0.1,0.6-0.2,1.1-0.8,1.3l-4.8,1.2C157.6,20.5,157.5,20.5,157.4,20.5z"/>
				<path fill="#10658C" d="M162.8,16.3c-0.2,0-0.4,0-0.5-0.1l-4.2-2.5c-0.5-0.3-0.7-0.9-0.4-1.4c0.3-0.5,0.9-0.7,1.4-0.4l4.2,2.5
					c0.5,0.3,0.7,0.9,0.4,1.4C163.5,16.1,163.2,16.3,162.8,16.3z"/>
			</g>
		</g>
		<path fill="#FFFFFF" d="M48.5,39.8c-2.5,0-4.6-2.1-4.6-4.6c0-2.5,2.1-4.6,4.6-4.6c2.5,0,4.6,2.1,4.6,4.6
			C53.1,37.8,51.1,39.8,48.5,39.8z M48.5,32.8c-1.4,0-2.5,1.1-2.5,2.5c0,1.4,1.1,2.5,2.5,2.5c1.4,0,2.5-1.1,2.5-2.5
			C51,33.9,49.9,32.8,48.5,32.8z"/>
		<path fill="#E95F58" d="M179.9,97.5c-2.5,0-4.6-2.1-4.6-4.6s2.1-4.6,4.6-4.6s4.6,2.1,4.6,4.6S182.5,97.5,179.9,97.5z M179.9,90.5
			c-1.4,0-2.5,1.1-2.5,2.5s1.1,2.5,2.5,2.5s2.5-1.1,2.5-2.5S181.3,90.5,179.9,90.5z"/>
		<g>
			<path fill="#E95F58" d="M43.2,122.9c-0.3,0-0.5-0.1-0.7-0.3l-4.8-4.8c-0.4-0.4-0.4-1.1,0-1.5c0.4-0.4,1.1-0.4,1.5,0l4.8,4.8
				c0.4,0.4,0.4,1.1,0,1.5C43.7,122.8,43.5,122.9,43.2,122.9z"/>
			<path fill="#E95F58" d="M38.4,122.9c-0.3,0-0.5-0.1-0.7-0.3c-0.4-0.4-0.4-1.1,0-1.5l4.8-4.8c0.4-0.4,1.1-0.4,1.5,0
				c0.4,0.4,0.4,1.1,0,1.5l-4.8,4.8C39,122.8,38.7,122.9,38.4,122.9z"/>
		</g>
		<path fill="#10658C" d="M18.2,101.7c-0.8,0-1.5-0.5-1.9-1.2L14.5,97c0,0-0.1-0.1-0.1-0.1l-3.2-1.9c-0.7-0.4-1.1-1.1-1.1-2
			s0.4-1.6,1.1-2l3.2-1.9c0,0,0.1,0,0.1-0.1l1.8-3.5c0.4-0.8,1.1-1.2,1.9-1.2c0.8,0,1.5,0.5,1.9,1.2l1.8,3.5c0,0,0.1,0.1,0.1,0.1
			l3.2,1.9c0.7,0.4,1.1,1.1,1.1,2s-0.4,1.6-1.1,2l-3.2,1.9c0,0-0.1,0.1-0.1,0.1l-1.8,3.5C19.7,101.3,19,101.7,18.2,101.7z
			 M18.2,86.2c-0.1,0-0.1,0.1-0.1,0.1l-1.8,3.5c-0.2,0.4-0.5,0.7-0.8,0.9l-3.2,1.9c-0.1,0.1-0.1,0.2-0.1,0.3s0,0.2,0.1,0.3l3.2,1.9
			c0.4,0.2,0.6,0.5,0.8,0.9l1.8,3.5c0,0.1,0.2,0.1,0.2,0l1.8-3.5c0.2-0.4,0.5-0.7,0.8-0.9l3.2-1.9c0.1-0.1,0.1-0.2,0.1-0.3
			s0-0.2-0.1-0.3l-3.2-1.9c-0.4-0.2-0.6-0.5-0.8-0.9l-1.8-3.5C18.3,86.2,18.3,86.2,18.2,86.2z"/>
		<path fill="#10658C" d="M193.3,105.4l1.4,2.8c0.1,0.2,0.2,0.3,0.4,0.4l2.5,1.5c0.6,0.4,0.6,1.4,0,1.7l-2.5,1.5
			c-0.2,0.1-0.3,0.2-0.4,0.4l-1.4,2.8c-0.3,0.7-1.2,0.7-1.6,0l-1.4-2.8c-0.1-0.2-0.2-0.3-0.4-0.4l-2.5-1.5c-0.6-0.4-0.6-1.4,0-1.7
			l2.5-1.5c0.2-0.1,0.3-0.2,0.4-0.4l1.4-2.8C192,104.8,192.9,104.8,193.3,105.4z"/>
		<path fill="#E95F58" d="M107.8,66.3L107.8,66.3c-0.3,0-0.5-0.1-0.7-0.3l-5.9-5.9c-0.9-0.9-1.4-2.1-1.4-3.3c0-1.3,0.5-2.4,1.4-3.3
			s2.1-1.4,3.3-1.4c1.2,0,2.4,0.5,3.3,1.3c0.9-0.9,2-1.3,3.3-1.3c1.3,0,2.4,0.5,3.3,1.4c0.9,0.9,1.4,2.1,1.4,3.3
			c0,1.3-0.5,2.4-1.4,3.3l-5.9,5.9C108.4,66.2,108.1,66.3,107.8,66.3z M104.5,54.2c-0.7,0-1.3,0.3-1.8,0.8c-0.5,0.5-0.8,1.1-0.8,1.8
			c0,0.7,0.3,1.3,0.8,1.8l5.1,5.1l5.1-5.1c0.5-0.5,0.8-1.1,0.8-1.8c0-0.7-0.3-1.3-0.8-1.8c-1-1-2.7-1-3.7,0l-0.7,0.7
			c-0.4,0.4-1.1,0.4-1.5,0l-0.7-0.7C105.9,54.5,105.2,54.2,104.5,54.2z"/>
	</g>
	<path fill="#10658C" d="M182.5,165.5c0,0-0.1,0-0.1,0c-48.9-6.2-98.6-6.2-147.5,0c-0.6,0.1-1.1-0.3-1.2-0.9s0.3-1.1,0.9-1.2
		c49.1-6.2,98.9-6.2,148,0c0.6,0.1,1,0.6,0.9,1.2C183.4,165.1,183,165.5,182.5,165.5z"/>
</g>
</svg>
